<svg width="35" height="35" viewBox="0 0 52 52" fill="none" xmlns="http://www.w3.org/2000/svg">
                    <path
                      d="M49.8062 23.3187L43.875 17.3875C43.3063 16.8187 42.4125 16.8187 41.8438 17.3875C41.275 17.9562 41.275 18.85 41.8438 19.4187L46.9625 24.6187H27.4625V4.87498L32.5812 10.075C33.15 10.6437 34.0437 10.6437 34.6125 10.075C35.1812 9.50623 35.1812 8.61248 34.6125 8.04373L28.6812 2.11248C27.95 1.38123 26.975 0.974976 26 0.974976C24.9438 0.974976 24.05 1.38123 23.3188 2.11248L17.3875 8.04373C16.8187 8.61248 16.8187 9.50623 17.3875 10.075C17.6312 10.3187 18.0375 10.4812 18.3625 10.4812C18.6875 10.4812 19.0937 10.3187 19.3375 10.075L24.6187 4.87498V24.5375H4.95625L10.075 19.3375C10.6437 18.7687 10.6437 17.875 10.075 17.3062C9.50625 16.7375 8.6125 16.7375 8.04375 17.3062L2.1125 23.2375C0.65 24.7 0.65 27.1375 2.1125 28.6L8.04375 34.5312C8.2875 34.775 8.69375 34.9375 9.01875 34.9375C9.34375 34.9375 9.75 34.775 9.99375 34.5312C10.5625 33.9625 10.5625 33.0687 9.99375 32.5L4.79375 27.3H24.4563V47.125L19.2563 41.925C18.6875 41.3562 17.7938 41.3562 17.225 41.925C16.6563 42.4937 16.6563 43.3875 17.225 43.9562L23.1562 49.8875C23.8875 50.6187 24.8625 51.025 25.8375 51.025C26.8937 51.025 27.7875 50.6187 28.5187 49.8875L34.45 43.9562C35.0188 43.3875 35.0188 42.4937 34.45 41.925C33.8813 41.3562 32.9875 41.3562 32.4188 41.925L27.4625 47.125V27.3812H47.0438L41.8438 32.5812C41.275 33.15 41.275 34.0437 41.8438 34.6125C42.0875 34.8562 42.4938 35.0187 42.8188 35.0187C43.1438 35.0187 43.55 34.8562 43.7938 34.6125L49.725 28.6812C51.2688 27.2187 51.2687 24.7812 49.8062 23.3187Z"
                      fill="white" />
                  </svg>